<svg width="384" height="448" viewBox="0 0 384 448" fill="none" xmlns="http://www.w3.org/2000/svg">
<g clip-path="url(#clip0_593_372)">
<rect width="64" height="64" fill="#D9D9D9"/>
<rect x="0.5" y="0.5" width="63" height="63" stroke="black" stroke-opacity="0.2"/>
<mask id="path-3-inside-1_593_372" fill="white">
<path fill-rule="evenodd" clip-rule="evenodd" d="M320 64H256V128C256 92.6538 284.654 64 320 64Z"/>
</mask>
<path fill-rule="evenodd" clip-rule="evenodd" d="M320 64H256V128C256 92.6538 284.654 64 320 64Z" fill="#D9D9D9"/>
<path d="M256 64V63H255V64H256ZM256 65H320V63H256V65ZM257 128V64H255V128H257ZM257 128C257 93.2061 285.206 65 320 65V63C284.101 63 255 92.1015 255 128H257Z" fill="black" fill-opacity="0.2" mask="url(#path-3-inside-1_593_372)"/>
<mask id="path-5-inside-2_593_372" fill="white">
<path fill-rule="evenodd" clip-rule="evenodd" d="M320 64H384V128C384 92.6538 355.346 64 320 64Z"/>
</mask>
<path fill-rule="evenodd" clip-rule="evenodd" d="M320 64H384V128C384 92.6538 355.346 64 320 64Z" fill="#D9D9D9"/>
<path d="M384 64V63H385V64H384ZM384 65H320V63H384V65ZM383 128V64H385V128H383ZM383 128C383 93.2061 354.794 65 320 65V63C355.899 63 385 92.1015 385 128H383Z" fill="black" fill-opacity="0.2" mask="url(#path-5-inside-2_593_372)"/>
<mask id="path-7-inside-3_593_372" fill="white">
<path fill-rule="evenodd" clip-rule="evenodd" d="M320 192H256V128C256 163.346 284.654 192 320 192Z"/>
</mask>
<path fill-rule="evenodd" clip-rule="evenodd" d="M320 192H256V128C256 163.346 284.654 192 320 192Z" fill="#D9D9D9"/>
<path d="M256 192V193H255V192H256ZM256 191H320V193H256V191ZM257 128V192H255V128H257ZM257 128C257 162.794 285.206 191 320 191V193C284.101 193 255 163.899 255 128H257Z" fill="black" fill-opacity="0.2" mask="url(#path-7-inside-3_593_372)"/>
<mask id="path-9-inside-4_593_372" fill="white">
<path fill-rule="evenodd" clip-rule="evenodd" d="M320 192H384V128C384 163.346 355.346 192 320 192Z"/>
</mask>
<path fill-rule="evenodd" clip-rule="evenodd" d="M320 192H384V128C384 163.346 355.346 192 320 192Z" fill="#D9D9D9"/>
<path d="M384 192V193H385V192H384ZM384 191H320V193H384V191ZM383 128V192H385V128H383ZM383 128C383 162.794 354.794 191 320 191V193C355.899 193 385 163.899 385 128H383Z" fill="black" fill-opacity="0.2" mask="url(#path-9-inside-4_593_372)"/>
<path d="M128 0V64H64L128 0Z" fill="#D9D9D9"/>
<path d="M65.2071 63.5L127.5 1.20711V63.5H65.2071Z" stroke="black" stroke-opacity="0.2"/>
<path d="M256 64V0H193L256 64Z" fill="#D9D9D9"/>
<path d="M194.194 0.5L255.5 62.7793V0.5H194.194Z" stroke="black" stroke-opacity="0.2"/>
<path d="M128 0V64H193L128 0Z" fill="#D9D9D9"/>
<path d="M191.78 63.5L128.5 1.19399V63.5H191.78Z" stroke="black" stroke-opacity="0.2"/>
<path d="M256 64V0H320L256 64Z" fill="#D9D9D9"/>
<path d="M318.793 0.5L256.5 62.7929V0.5H318.793Z" stroke="black" stroke-opacity="0.2"/>
<path d="M128 256H129C164.346 256 193 284.654 193 320V320H128V256Z" fill="#D9D9D9"/>
<path d="M192.498 319.5H128.5V256.5H129C163.903 256.5 192.229 284.66 192.498 319.5Z" stroke="black" stroke-opacity="0.2"/>
<path d="M64 320C64 284.654 92.6538 256 128 256V256V320H64V320Z" fill="#D9D9D9"/>
<path d="M127.5 319.5H64.5019C64.7693 284.827 92.8266 256.769 127.5 256.502V319.5Z" stroke="black" stroke-opacity="0.2"/>
<path d="M128 320H193V320C193 355.346 164.346 384 129 384H128V320Z" fill="#D9D9D9"/>
<path d="M128.5 320.5H192.498C192.229 355.34 163.903 383.5 129 383.5H128.5V320.5Z" stroke="black" stroke-opacity="0.2"/>
<path d="M64 320H128V384V384C92.6538 384 64 355.346 64 320V320Z" fill="#D9D9D9"/>
<path d="M127.5 320.5V383.498C92.8266 383.231 64.7693 355.173 64.5019 320.5H127.5Z" stroke="black" stroke-opacity="0.2"/>
<mask id="path-27-inside-5_593_372" fill="white">
<path fill-rule="evenodd" clip-rule="evenodd" d="M192 128V95.9998L128 64V128H192Z"/>
</mask>
<path fill-rule="evenodd" clip-rule="evenodd" d="M192 128V95.9998L128 64V128H192Z" fill="#D9D9D9"/>
<path d="M192 128V129H193V128H192ZM192 95.9998H193V95.3818L192.447 95.1054L192 95.9998ZM128 64L128.448 63.1056L127 62.382V64H128ZM128 128H127V129H128V128ZM193 128V95.9998H191V128H193ZM192.447 95.1054L128.448 63.1056L127.553 64.8944L191.553 96.8942L192.447 95.1054ZM127 64V128H129V64H127ZM128 129H192V127H128V129Z" fill="black" fill-opacity="0.2" mask="url(#path-27-inside-5_593_372)"/>
<mask id="path-29-inside-6_593_372" fill="white">
<path fill-rule="evenodd" clip-rule="evenodd" d="M320 384L352 384L384 320L320 320L320 384Z"/>
</mask>
<path fill-rule="evenodd" clip-rule="evenodd" d="M320 384L352 384L384 320L320 320L320 384Z" fill="#D9D9D9"/>
<path d="M320 384L319 384L319 385L320 385L320 384ZM352 384L352 385L352.618 385L352.895 384.447L352 384ZM384 320L384.894 320.448L385.618 319L384 319L384 320ZM320 320L320 319L319 319L319 320L320 320ZM320 385L352 385L352 383L320 383L320 385ZM352.895 384.447L384.894 320.448L383.106 319.553L351.106 383.553L352.895 384.447ZM384 319L320 319L320 321L384 321L384 319ZM319 320L319 384L321 384L321 320L319 320Z" fill="black" fill-opacity="0.2" mask="url(#path-29-inside-6_593_372)"/>
<mask id="path-31-inside-7_593_372" fill="white">
<path fill-rule="evenodd" clip-rule="evenodd" d="M64.0004 128V160L128 192V128H64.0004Z"/>
</mask>
<path fill-rule="evenodd" clip-rule="evenodd" d="M64.0004 128V160L128 192V128H64.0004Z" fill="#D9D9D9"/>
<path d="M64.0004 128V127H63.0004V128H64.0004ZM64.0004 160H63.0004V160.618L63.5532 160.895L64.0004 160ZM128 192L127.553 192.894L129 193.618V192H128ZM128 128H129V127H128V128ZM63.0004 128V160H65.0004V128H63.0004ZM63.5532 160.895L127.553 192.894L128.447 191.106L64.4476 159.106L63.5532 160.895ZM129 192V128H127V192H129ZM128 127H64.0004V129H128V127Z" fill="black" fill-opacity="0.2" mask="url(#path-31-inside-7_593_372)"/>
<mask id="path-33-inside-8_593_372" fill="white">
<path fill-rule="evenodd" clip-rule="evenodd" d="M320 256L288 256L256 320L320 320L320 256Z"/>
</mask>
<path fill-rule="evenodd" clip-rule="evenodd" d="M320 256L288 256L256 320L320 320L320 256Z" fill="#D9D9D9"/>
<path d="M320 256L321 256L321 255L320 255L320 256ZM288 256L288 255L287.382 255L287.105 255.553L288 256ZM256 320L255.106 319.553L254.382 321L256 321L256 320ZM320 320L320 321L321 321L321 320L320 320ZM320 255L288 255L288 257L320 257L320 255ZM287.105 255.553L255.106 319.553L256.894 320.447L288.894 256.448L287.105 255.553ZM256 321L320 321L320 319L256 319L256 321ZM321 320L321 256L319 256L319 320L321 320Z" fill="black" fill-opacity="0.2" mask="url(#path-33-inside-8_593_372)"/>
<mask id="path-35-inside-9_593_372" fill="white">
<path fill-rule="evenodd" clip-rule="evenodd" d="M64.0004 128V95.9998L128 64V128H64.0004Z"/>
</mask>
<path fill-rule="evenodd" clip-rule="evenodd" d="M64.0004 128V95.9998L128 64V128H64.0004Z" fill="#D9D9D9"/>
<path d="M64.0004 128V129H63.0004V128H64.0004ZM64.0004 95.9998H63.0004V95.3818L63.5532 95.1054L64.0004 95.9998ZM128 64L127.553 63.1056L129 62.382V64H128ZM128 128H129V129H128V128ZM63.0004 128V95.9998H65.0004V128H63.0004ZM63.5532 95.1054L127.553 63.1056L128.447 64.8944L64.4476 96.8942L63.5532 95.1054ZM129 64V128H127V64H129ZM128 129H64.0004V127H128V129Z" fill="black" fill-opacity="0.2" mask="url(#path-35-inside-9_593_372)"/>
<mask id="path-37-inside-10_593_372" fill="white">
<path fill-rule="evenodd" clip-rule="evenodd" d="M352 256L384 320L320 320L320 256L352 256Z"/>
</mask>
<path fill-rule="evenodd" clip-rule="evenodd" d="M352 256L384 320L320 320L320 256L352 256Z" fill="#D9D9D9"/>
<path d="M352 256L352 255L352.618 255L352.895 255.553L352 256ZM384 320L384.894 319.553L385.618 321L384 321L384 320ZM320 320L320 321L319 321L319 320L320 320ZM320 256L319 256L319 255L320 255L320 256ZM352.895 255.553L384.894 319.553L383.106 320.447L351.106 256.448L352.895 255.553ZM384 321L320 321L320 319L384 319L384 321ZM319 320L319 256L321 256L321 320L319 320ZM320 255L352 255L352 257L320 257L320 255Z" fill="black" fill-opacity="0.2" mask="url(#path-37-inside-10_593_372)"/>
<mask id="path-39-inside-11_593_372" fill="white">
<path fill-rule="evenodd" clip-rule="evenodd" d="M192 128V160L128 192V128H192Z"/>
</mask>
<path fill-rule="evenodd" clip-rule="evenodd" d="M192 128V160L128 192V128H192Z" fill="#D9D9D9"/>
<path d="M192 128V127H193V128H192ZM192 160H193V160.618L192.447 160.895L192 160ZM128 192L128.448 192.894L127 193.618V192H128ZM128 128H127V127H128V128ZM193 128V160H191V128H193ZM192.447 160.895L128.448 192.894L127.553 191.106L191.553 159.106L192.447 160.895ZM127 192V128H129V192H127ZM128 127H192V129H128V127Z" fill="black" fill-opacity="0.2" mask="url(#path-39-inside-11_593_372)"/>
<mask id="path-41-inside-12_593_372" fill="white">
<path fill-rule="evenodd" clip-rule="evenodd" d="M288 384L256 320L320 320L320 384L288 384Z"/>
</mask>
<path fill-rule="evenodd" clip-rule="evenodd" d="M288 384L256 320L320 320L320 384L288 384Z" fill="#D9D9D9"/>
<path d="M288 384L288 385L287.382 385L287.105 384.447L288 384ZM256 320L255.106 320.448L254.382 319L256 319L256 320ZM320 320L320 319L321 319L321 320L320 320ZM320 384L321 384L321 385L320 385L320 384ZM287.105 384.447L255.106 320.448L256.894 319.553L288.894 383.553L287.105 384.447ZM256 319L320 319L320 321L256 321L256 319ZM321 320L321 384L319 384L319 320L321 320ZM320 385L288 385L288 383L320 383L320 385Z" fill="black" fill-opacity="0.2" mask="url(#path-41-inside-12_593_372)"/>
<mask id="path-43-inside-13_593_372" fill="white">
<path fill-rule="evenodd" clip-rule="evenodd" d="M63.9998 96.0001L0 128H63.9998V96.0001ZM128 64V128H128V64H128Z"/>
</mask>
<path fill-rule="evenodd" clip-rule="evenodd" d="M63.9998 96.0001L0 128H63.9998V96.0001ZM128 64V128H128V64H128Z" fill="#D9D9D9"/>
<path d="M0 128L-0.447214 127.106L0 129V128ZM63.9998 96.0001H64.9998V94.3821L63.5526 95.1057L63.9998 96.0001ZM63.9998 128V129H64.9998V128H63.9998ZM128 64V63H127V64H128ZM128 128H127V129H128V128ZM128 128V129H129V128H128ZM128 64H129V63H128V64ZM0.447214 128.894L64.447 96.8945L63.5526 95.1057L-0.447214 127.106L0.447214 128.894ZM63.9998 127H0V129H63.9998V127ZM64.9998 128V96.0001H62.9998V128H64.9998ZM127 64V128H129V64H127ZM128 127H128V129H128V127ZM127 64V128H129V64H127ZM128 65H128V63H128V65Z" fill="black" fill-opacity="0.2" mask="url(#path-43-inside-13_593_372)"/>
<mask id="path-45-inside-14_593_372" fill="white">
<path fill-rule="evenodd" clip-rule="evenodd" d="M352 256L320 192L320 256L352 256ZM320 320L320 320L384 320L384 320L320 320Z"/>
</mask>
<path fill-rule="evenodd" clip-rule="evenodd" d="M352 256L320 192L320 256L352 256ZM320 320L320 320L384 320L384 320L320 320Z" fill="#D9D9D9"/>
<path d="M320 192L320.894 191.553L319 192L320 192ZM352 256L352 257L353.618 257L352.894 255.553L352 256ZM320 256L319 256L319 257L320 257L320 256ZM320 320L319 319.99L318.99 321L320 321L320 320ZM320 320L320 319L319.01 319L319 319.99L320 320ZM384 320L384 321L384.99 321L385 320.01L384 320ZM384 320L385 320.01L385.01 319L384 319L384 320ZM319.106 192.447L351.105 256.447L352.894 255.553L320.894 191.553L319.106 192.447ZM321 256L321 192L319 192L319 256L321 256ZM320 257L352 257L352 255L320 255L320 257ZM321 320.01L321 320.01L319 319.99L319 319.99L321 320.01ZM384 319L320 319L320 321L384 321L384 319ZM383 319.99L383 319.99L385 320.01L385 320.01L383 319.99ZM384 319L320 319L320 321L384 321L384 319Z" fill="black" fill-opacity="0.2" mask="url(#path-45-inside-14_593_372)"/>
<mask id="path-47-inside-15_593_372" fill="white">
<path fill-rule="evenodd" clip-rule="evenodd" d="M192 160L256 128H192V160ZM128 192V128H128V192H128Z"/>
</mask>
<path fill-rule="evenodd" clip-rule="evenodd" d="M192 160L256 128H192V160ZM128 192V128H128V192H128Z" fill="#D9D9D9"/>
<path d="M256 128L256.447 128.894L256 127V128ZM192 160H191V161.618L192.447 160.894L192 160ZM192 128V127H191V128H192ZM128 192V193H129V192H128ZM128 128H129V127H128V128ZM128 128V127H127V128H128ZM128 192H127V193H128V192ZM255.553 127.106L191.553 159.105L192.447 160.894L256.447 128.894L255.553 127.106ZM192 129H256V127H192V129ZM191 128V160H193V128H191ZM129 192V128H127V192H129ZM128 129H128V127H128V129ZM129 192V128H127V192H129ZM128 191H128V193H128V191Z" fill="black" fill-opacity="0.2" mask="url(#path-47-inside-15_593_372)"/>
<mask id="path-49-inside-16_593_372" fill="white">
<path fill-rule="evenodd" clip-rule="evenodd" d="M288 384L320 448L320 320L256 320L256 320L320 320L320 384L288 384Z"/>
</mask>
<path fill-rule="evenodd" clip-rule="evenodd" d="M288 384L320 448L320 320L256 320L256 320L320 320L320 384L288 384Z" fill="#D9D9D9"/>
<path d="M320 448L319.106 448.447L321 448L320 448ZM288 384L288 383L286.382 383L287.106 384.447L288 384ZM320 320L321 320L321 319L320 319L320 320ZM256 320L256 319L255.021 319L255 319.979L256 320ZM256 320L255 319.979L254.979 321L256 321L256 320ZM320 320L321 320L321 319L320 319L320 320ZM320 384L320 385L321 385L321 384L320 384ZM320.894 447.553L288.895 383.553L287.106 384.447L319.106 448.447L320.894 447.553ZM319 320L319 448L321 448L321 320L319 320ZM256 321L320 321L320 319L256 319L256 321ZM257 320.021L257 320.021L255 319.979L255 319.979L257 320.021ZM256 321L320 321L320 319L256 319L256 321ZM319 320L319 384L321 384L321 320L319 320ZM320 383L288 383L288 385L320 385L320 383Z" fill="black" fill-opacity="0.2" mask="url(#path-49-inside-16_593_372)"/>
<mask id="path-51-inside-17_593_372" fill="white">
<path fill-rule="evenodd" clip-rule="evenodd" d="M192 96.0001L256 128H192V96.0001ZM128 64V128H128V64H128Z"/>
</mask>
<path fill-rule="evenodd" clip-rule="evenodd" d="M192 96.0001L256 128H192V96.0001ZM128 64V128H128V64H128Z" fill="#D9D9D9"/>
<path d="M256 128L256.447 127.106L256 129V128ZM192 96.0001H191V94.3821L192.447 95.1057L192 96.0001ZM192 128V129H191V128H192ZM128 64V63H129V64H128ZM128 128H129V129H128V128ZM128 128V129H127V128H128ZM128 64H127V63H128V64ZM255.553 128.894L191.553 96.8945L192.447 95.1057L256.447 127.106L255.553 128.894ZM192 127H256V129H192V127ZM191 128V96.0001H193V128H191ZM129 64V128H127V64H129ZM128 127H128V129H128V127ZM129 64V128H127V64H129ZM128 65H128V63H128V65Z" fill="black" fill-opacity="0.2" mask="url(#path-51-inside-17_593_372)"/>
<mask id="path-53-inside-18_593_372" fill="white">
<path fill-rule="evenodd" clip-rule="evenodd" d="M352 384L320 448L320 384L352 384ZM384 320L320 320L320 320L384 320L384 320Z"/>
</mask>
<path fill-rule="evenodd" clip-rule="evenodd" d="M352 384L320 448L320 384L352 384ZM384 320L320 320L320 320L384 320L384 320Z" fill="#D9D9D9"/>
<path d="M320 448L320.894 448.447L319 448L320 448ZM352 384L352 383L353.618 383L352.894 384.447L352 384ZM320 384L319 384L319 383L320 383L320 384ZM384 320L385 320.019L384.981 321L384 321L384 320ZM320 320L320 321L318.981 321L319 319.981L320 320ZM320 320L319 319.981L319.019 319L320 319L320 320ZM384 320L384 319L385.019 319L385 320.019L384 320ZM319.106 447.553L351.105 383.553L352.894 384.447L320.894 448.447L319.106 447.553ZM321 384L321 448L319 448L319 384L321 384ZM320 383L352 383L352 385L320 385L320 383ZM384 321L320 321L320 319L384 319L384 321ZM321 320.019L321 320.019L319 319.981L319 319.981L321 320.019ZM384 321L320 321L320 319L384 319L384 321ZM383 319.981L383 319.981L385 320.019L385 320.019L383 319.981Z" fill="black" fill-opacity="0.2" mask="url(#path-53-inside-18_593_372)"/>
<mask id="path-55-inside-19_593_372" fill="white">
<path fill-rule="evenodd" clip-rule="evenodd" d="M63.9998 160L0 128H63.9998V160ZM128 192V128H128V192H128Z"/>
</mask>
<path fill-rule="evenodd" clip-rule="evenodd" d="M63.9998 160L0 128H63.9998V160ZM128 192V128H128V192H128Z" fill="#D9D9D9"/>
<path d="M0 128L-0.447214 128.894L0 127V128ZM63.9998 160H64.9998V161.618L63.5526 160.894L63.9998 160ZM63.9998 128V127H64.9998V128H63.9998ZM128 192V193H127V192H128ZM128 128H127V127H128V128ZM128 128V127H129V128H128ZM128 192H129V193H128V192ZM0.447214 127.106L64.447 159.105L63.5526 160.894L-0.447214 128.894L0.447214 127.106ZM63.9998 129H0V127H63.9998V129ZM64.9998 128V160H62.9998V128H64.9998ZM127 192V128H129V192H127ZM128 129H128V127H128V129ZM127 192V128H129V192H127ZM128 191H128V193H128V191Z" fill="black" fill-opacity="0.2" mask="url(#path-55-inside-19_593_372)"/>
<mask id="path-57-inside-20_593_372" fill="white">
<path fill-rule="evenodd" clip-rule="evenodd" d="M288 256L320 192L320 256L288 256ZM256 320L320 320L320 320L256 320L256 320Z"/>
</mask>
<path fill-rule="evenodd" clip-rule="evenodd" d="M288 256L320 192L320 256L288 256ZM256 320L320 320L320 320L256 320L256 320Z" fill="#D9D9D9"/>
<path d="M320 192L319.106 191.553L321 192L320 192ZM288 256L288 257L286.382 257L287.106 255.553L288 256ZM320 256L321 256L321 257L320 257L320 256ZM256 320L255 320L255 319L256 319L256 320ZM320 320L320 319L321 319L321 320L320 320ZM320 320L321 320L321 321L320 321L320 320ZM256 320L256 321L255 321L255 320L256 320ZM320.894 192.447L288.895 256.447L287.106 255.553L319.106 191.553L320.894 192.447ZM319 256L319 192L321 192L321 256L319 256ZM320 257L288 257L288 255L320 255L320 257ZM256 319L320 319L320 321L256 321L256 319ZM319 320L319 320L321 320L321 320L319 320ZM256 319L320 319L320 321L256 321L256 319ZM257 320L257 320L255 320L255 320L257 320Z" fill="black" fill-opacity="0.2" mask="url(#path-57-inside-20_593_372)"/>
<mask id="path-59-inside-21_593_372" fill="white">
<path fill-rule="evenodd" clip-rule="evenodd" d="M192 192H256V256H238.875C227.634 236.568 211.432 220.365 192 209.124V192Z"/>
</mask>
<path fill-rule="evenodd" clip-rule="evenodd" d="M192 192H256V256H238.875C227.634 236.568 211.432 220.365 192 209.124V192Z" fill="#D9D9D9"/>
<path d="M256 192H257V191H256V192ZM192 192V191H191V192H192ZM256 256V257H257V256H256ZM238.875 256L238.01 256.501L238.299 257H238.875V256ZM192 209.124H191V209.701L191.499 209.99L192 209.124ZM256 191H192V193H256V191ZM257 256V192H255V256H257ZM238.875 257H256V255H238.875V257ZM191.499 209.99C210.78 221.143 226.856 237.22 238.01 256.501L239.741 255.499C228.412 235.916 212.084 219.587 192.501 208.259L191.499 209.99ZM191 192V209.124H193V192H191Z" fill="black" fill-opacity="0.2" mask="url(#path-59-inside-21_593_372)"/>
<mask id="path-61-inside-22_593_372" fill="white">
<path fill-rule="evenodd" clip-rule="evenodd" d="M192 448H256V384H238.875C227.634 403.432 211.432 419.635 192 430.876V448Z"/>
</mask>
<path fill-rule="evenodd" clip-rule="evenodd" d="M192 448H256V384H238.875C227.634 403.432 211.432 419.635 192 430.876V448Z" fill="#D9D9D9"/>
<path d="M256 448H257V449H256V448ZM192 448V449H191V448H192ZM256 384V383H257V384H256ZM238.875 384L238.01 383.499L238.299 383H238.875V384ZM192 430.876H191V430.299L191.499 430.01L192 430.876ZM256 449H192V447H256V449ZM257 384V448H255V384H257ZM238.875 383H256V385H238.875V383ZM191.499 430.01C210.78 418.857 226.856 402.78 238.01 383.499L239.741 384.501C228.412 404.084 212.084 420.413 192.501 431.741L191.499 430.01ZM191 448V430.876H193V448H191Z" fill="black" fill-opacity="0.2" mask="url(#path-61-inside-22_593_372)"/>
<mask id="path-63-inside-23_593_372" fill="white">
<path fill-rule="evenodd" clip-rule="evenodd" d="M63.9995 192H-8.39233e-05V256H17.1242C28.365 236.568 44.5676 220.365 63.9995 209.124V192Z"/>
</mask>
<path fill-rule="evenodd" clip-rule="evenodd" d="M63.9995 192H-8.39233e-05V256H17.1242C28.365 236.568 44.5676 220.365 63.9995 209.124V192Z" fill="#D9D9D9"/>
<path d="M-8.39233e-05 192H-1.00008V191H-8.39233e-05V192ZM63.9995 192V191H64.9995V192H63.9995ZM-8.39233e-05 256V257H-1.00008V256H-8.39233e-05ZM17.1242 256L17.9898 256.501L17.701 257H17.1242V256ZM63.9995 209.124H64.9995V209.701L64.5002 209.99L63.9995 209.124ZM-8.39233e-05 191H63.9995V193H-8.39233e-05V191ZM-1.00008 256V192H0.999916V256H-1.00008ZM17.1242 257H-8.39233e-05V255H17.1242V257ZM64.5002 209.99C45.2198 221.143 29.143 237.22 17.9898 256.501L16.2586 255.499C27.587 235.916 43.9154 219.587 63.4988 208.259L64.5002 209.99ZM64.9995 192V209.124H62.9995V192H64.9995Z" fill="black" fill-opacity="0.2" mask="url(#path-63-inside-23_593_372)"/>
<mask id="path-65-inside-24_593_372" fill="white">
<path fill-rule="evenodd" clip-rule="evenodd" d="M63.9995 448H-8.39233e-05V384H17.1242C28.365 403.432 44.5676 419.635 63.9995 430.876V448Z"/>
</mask>
<path fill-rule="evenodd" clip-rule="evenodd" d="M63.9995 448H-8.39233e-05V384H17.1242C28.365 403.432 44.5676 419.635 63.9995 430.876V448Z" fill="#D9D9D9"/>
<path d="M-8.39233e-05 448H-1.00008V449H-8.39233e-05V448ZM63.9995 448V449H64.9995V448H63.9995ZM-8.39233e-05 384V383H-1.00008V384H-8.39233e-05ZM17.1242 384L17.9898 383.499L17.701 383H17.1242V384ZM63.9995 430.876H64.9995V430.299L64.5002 430.01L63.9995 430.876ZM-8.39233e-05 449H63.9995V447H-8.39233e-05V449ZM-1.00008 384V448H0.999916V384H-1.00008ZM17.1242 383H-8.39233e-05V385H17.1242V383ZM64.5002 430.01C45.2198 418.857 29.143 402.78 17.9898 383.499L16.2586 384.501C27.587 404.084 43.9154 420.413 63.4988 431.741L64.5002 430.01ZM64.9995 448V430.876H62.9995V448H64.9995Z" fill="black" fill-opacity="0.2" mask="url(#path-65-inside-24_593_372)"/>
<mask id="path-67-inside-25_593_372" fill="white">
<path fill-rule="evenodd" clip-rule="evenodd" d="M256 256V256H238.876C238.876 256 238.876 256 238.876 256H256ZM192 192H128C151.314 192 173.173 198.233 192 209.124V192Z"/>
</mask>
<path fill-rule="evenodd" clip-rule="evenodd" d="M256 256V256H238.876C238.876 256 238.876 256 238.876 256H256ZM192 192H128C151.314 192 173.173 198.233 192 209.124V192Z" fill="#D9D9D9"/>
<path d="M256 256V257H257V256H256ZM256 256H257V255H256V256ZM238.876 256L238.012 256.504L238.302 257H238.876V256ZM238.876 256V255H237.135L238.012 256.503L238.876 256ZM192 192H193V191H192V192ZM192 209.124L191.499 209.99L193 210.858V209.124H192ZM257 256V256H255V256H257ZM238.876 257H256V255H238.876V257ZM238.012 256.503L238.012 256.504L239.74 255.496L239.74 255.496L238.012 256.503ZM256 255H238.876V257H256V255ZM192 191H128V193H192V191ZM128 193C151.134 193 172.82 199.184 191.499 209.99L192.501 208.258C173.526 197.282 151.495 191 128 191V193ZM193 209.124V192H191V209.124H193Z" fill="black" fill-opacity="0.2" mask="url(#path-67-inside-25_593_372)"/>
<mask id="path-69-inside-26_593_372" fill="white">
<path fill-rule="evenodd" clip-rule="evenodd" d="M256 384V384H238.876C238.876 384 238.876 384 238.876 384H256ZM192 448H128C151.314 448 173.173 441.766 192 430.876V448Z"/>
</mask>
<path fill-rule="evenodd" clip-rule="evenodd" d="M256 384V384H238.876C238.876 384 238.876 384 238.876 384H256ZM192 448H128C151.314 448 173.173 441.766 192 430.876V448Z" fill="#D9D9D9"/>
<path d="M256 384V383H257V384H256ZM256 384H257V385H256V384ZM238.876 384L238.012 383.496L238.302 383H238.876V384ZM238.876 384V385H237.135L238.012 383.496L238.876 384ZM192 448H193V449H192V448ZM192 430.876L191.499 430.01L193 429.142V430.876H192ZM257 384V384H255V384H257ZM238.876 383H256V385H238.876V383ZM238.012 383.496L238.012 383.496L239.74 384.503L239.74 384.504L238.012 383.496ZM256 385H238.876V383H256V385ZM192 449H128V447H192V449ZM128 447C151.134 447 172.82 440.815 191.499 430.01L192.501 431.741C173.526 442.718 151.495 449 128 449V447ZM193 430.876V448H191V430.876H193Z" fill="black" fill-opacity="0.2" mask="url(#path-69-inside-26_593_372)"/>
<mask id="path-71-inside-27_593_372" fill="white">
<path fill-rule="evenodd" clip-rule="evenodd" d="M0 256V256H17.124C17.1241 256 17.1241 256 17.1242 256H0ZM64 192H128C104.686 192 82.8271 198.233 64 209.124V192Z"/>
</mask>
<path fill-rule="evenodd" clip-rule="evenodd" d="M0 256V256H17.124C17.1241 256 17.1241 256 17.1242 256H0ZM64 192H128C104.686 192 82.8271 198.233 64 209.124V192Z" fill="#D9D9D9"/>
<path d="M0 256V257H-1V256H0ZM0 256H-1V255H0V256ZM17.124 256L17.9878 256.504L17.6984 257H17.124V256ZM17.1242 256V255H18.8653L17.988 256.503L17.1242 256ZM64 192H63V191H64V192ZM64 209.124L64.5007 209.99L63 210.858V209.124H64ZM-1 256V256H1V256H-1ZM17.124 257H0V255H17.124V257ZM17.988 256.503L17.9878 256.504L16.2602 255.496L16.2605 255.496L17.988 256.503ZM0 255H17.1242V257H0V255ZM64 191H128V193H64V191ZM128 193C104.866 193 83.1797 199.184 64.5007 209.99L63.4993 208.258C82.4745 197.282 104.505 191 128 191V193ZM63 209.124V192H65V209.124H63Z" fill="black" fill-opacity="0.2" mask="url(#path-71-inside-27_593_372)"/>
<mask id="path-73-inside-28_593_372" fill="white">
<path fill-rule="evenodd" clip-rule="evenodd" d="M0 384V384H17.124C17.1241 384 17.1241 384 17.1242 384H0ZM64 448H128C104.686 448 82.8271 441.766 64 430.876V448Z"/>
</mask>
<path fill-rule="evenodd" clip-rule="evenodd" d="M0 384V384H17.124C17.1241 384 17.1241 384 17.1242 384H0ZM64 448H128C104.686 448 82.8271 441.766 64 430.876V448Z" fill="#D9D9D9"/>
<path d="M0 384V383H-1V384H0ZM0 384H-1V385H0V384ZM17.124 384L17.9878 383.496L17.6984 383H17.124V384ZM17.1242 384V385H18.8653L17.988 383.496L17.1242 384ZM64 448H63V449H64V448ZM64 430.876L64.5007 430.01L63 429.142V430.876H64ZM-1 384V384H1V384H-1ZM17.124 383H0V385H17.124V383ZM17.988 383.496L17.9878 383.496L16.2602 384.503L16.2605 384.504L17.988 383.496ZM0 385H17.1242V383H0V385ZM64 449H128V447H64V449ZM128 447C104.866 447 83.1797 440.815 64.5007 430.01L63.4993 431.741C82.4745 442.718 104.505 449 128 449V447ZM63 430.876V448H65V430.876H63Z" fill="black" fill-opacity="0.2" mask="url(#path-73-inside-28_593_372)"/>
<mask id="path-75-inside-29_593_372" fill="white">
<path fill-rule="evenodd" clip-rule="evenodd" d="M256 192H128C128.109 192 128.219 192 128.328 192H256V256H238.876C249.767 274.827 256 296.686 256 320V192Z"/>
</mask>
<path fill-rule="evenodd" clip-rule="evenodd" d="M256 192H128C128.109 192 128.219 192 128.328 192H256V256H238.876C249.767 274.827 256 296.686 256 320V192Z" fill="#D9D9D9"/>
<path d="M256 192V191H257V192H256ZM128.328 192V193L128.326 193L128.328 192ZM256 192V191H257V192H256ZM256 256H257V257H256V256ZM238.876 256L238.01 256.501L237.142 255H238.876V256ZM128 191H256V193H128V191ZM128.326 193C128.217 193 128.109 193 128 193V191C128.11 191 128.221 191 128.331 191L128.326 193ZM256 193H128.328V191H256V193ZM255 256V192H257V256H255ZM238.876 255H256V257H238.876V255ZM255 320C255 296.866 248.816 275.18 238.01 256.501L239.742 255.5C250.718 274.475 257 296.505 257 320H255ZM257 192V320H255V192H257Z" fill="black" fill-opacity="0.2" mask="url(#path-75-inside-29_593_372)"/>
<mask id="path-77-inside-30_593_372" fill="white">
<path fill-rule="evenodd" clip-rule="evenodd" d="M256 448H128C128.109 448 128.219 448 128.328 448H256V384H238.876C249.767 365.173 256 343.315 256 320V448Z"/>
</mask>
<path fill-rule="evenodd" clip-rule="evenodd" d="M256 448H128C128.109 448 128.219 448 128.328 448H256V384H238.876C249.767 365.173 256 343.315 256 320V448Z" fill="#D9D9D9"/>
<path d="M256 448V449H257V448H256ZM128.328 448V447L128.326 447L128.328 448ZM256 448V449H257V448H256ZM256 384H257V383H256V384ZM238.876 384L238.01 383.499L237.142 385H238.876V384ZM128 449H256V447H128V449ZM128.326 447C128.217 447 128.109 447 128 447V449C128.11 449 128.221 449 128.331 449L128.326 447ZM256 447H128.328V449H256V447ZM255 384V448H257V384H255ZM238.876 385H256V383H238.876V385ZM255 320C255 343.134 248.816 364.82 238.01 383.499L239.742 384.501C250.718 365.526 257 343.495 257 320H255ZM257 448V320H255V448H257Z" fill="black" fill-opacity="0.2" mask="url(#path-77-inside-30_593_372)"/>
<mask id="path-79-inside-31_593_372" fill="white">
<path fill-rule="evenodd" clip-rule="evenodd" d="M3.24249e-05 192H128C127.891 192 127.781 192 127.672 192H0.00025177V256H17.1239C6.23318 274.827 3.24249e-05 296.686 3.24249e-05 320V192Z"/>
</mask>
<path fill-rule="evenodd" clip-rule="evenodd" d="M3.24249e-05 192H128C127.891 192 127.781 192 127.672 192H0.00025177V256H17.1239C6.23318 274.827 3.24249e-05 296.686 3.24249e-05 320V192Z" fill="#D9D9D9"/>
<path d="M3.24249e-05 192V191H-0.999968V192H3.24249e-05ZM127.672 192V193L127.674 193L127.672 192ZM0.00025177 192V191H-0.999748V192H0.00025177ZM0.00025177 256H-0.999748V257H0.00025177V256ZM17.1239 256L17.9895 256.501L18.8576 255H17.1239V256ZM128 191H3.24249e-05V193H128V191ZM127.674 193C127.783 193 127.891 193 128 193V191C127.89 191 127.779 191 127.669 191L127.674 193ZM0.00025177 193H127.672V191H0.00025177V193ZM1.00025 256V192H-0.999748V256H1.00025ZM17.1239 255H0.00025177V257H17.1239V255ZM1.00003 320C1.00003 296.866 7.18446 275.18 17.9895 256.501L16.2583 255.5C5.28189 274.475 -0.999968 296.505 -0.999968 320H1.00003ZM-0.999968 192V320H1.00003V192H-0.999968Z" fill="black" fill-opacity="0.2" mask="url(#path-79-inside-31_593_372)"/>
<mask id="path-81-inside-32_593_372" fill="white">
<path fill-rule="evenodd" clip-rule="evenodd" d="M3.24249e-05 448H128C127.891 448 127.781 448 127.672 448H0.00025177V384H17.1239C6.23318 365.173 3.24249e-05 343.315 3.24249e-05 320V448Z"/>
</mask>
<path fill-rule="evenodd" clip-rule="evenodd" d="M3.24249e-05 448H128C127.891 448 127.781 448 127.672 448H0.00025177V384H17.1239C6.23318 365.173 3.24249e-05 343.315 3.24249e-05 320V448Z" fill="#D9D9D9"/>
<path d="M3.24249e-05 448V449H-0.999968V448H3.24249e-05ZM127.672 448V447L127.674 447L127.672 448ZM0.00025177 448V449H-0.999748V448H0.00025177ZM0.00025177 384H-0.999748V383H0.00025177V384ZM17.1239 384L17.9895 383.499L18.8576 385H17.1239V384ZM128 449H3.24249e-05V447H128V449ZM127.674 447C127.783 447 127.891 447 128 447V449C127.89 449 127.779 449 127.669 449L127.674 447ZM0.00025177 447H127.672V449H0.00025177V447ZM1.00025 384V448H-0.999748V384H1.00025ZM17.1239 385H0.00025177V383H17.1239V385ZM1.00003 320C1.00003 343.134 7.18446 364.82 17.9895 383.499L16.2583 384.501C5.28189 365.526 -0.999968 343.495 -0.999968 320H1.00003ZM-0.999968 448V320H1.00003V448H-0.999968Z" fill="black" fill-opacity="0.2" mask="url(#path-81-inside-32_593_372)"/>
</g>
<defs>
<clipPath id="clip0_593_372">
<rect width="384" height="448" fill="white"/>
</clipPath>
</defs>
</svg>
