<svg width="192" height="224" viewBox="0 0 192 224" fill="none" xmlns="http://www.w3.org/2000/svg">
<g clip-path="url(#clip0_593_372)">
<rect width="32" height="32" fill="#D9D9D9"/>
<rect x="0.5" y="0.5" width="31" height="31" stroke="black" stroke-opacity="0.2"/>
<mask id="path-3-inside-1_593_372" fill="white">
<path fill-rule="evenodd" clip-rule="evenodd" d="M160 32H128V64C128 46.3269 142.327 32 160 32Z"/>
</mask>
<path fill-rule="evenodd" clip-rule="evenodd" d="M160 32H128V64C128 46.3269 142.327 32 160 32Z" fill="#D9D9D9"/>
<path d="M128 32V31H127V32H128ZM128 33H160V31H128V33ZM129 64V32H127V64H129ZM129 64C129 46.8792 142.879 33 160 33V31C141.775 31 127 45.7746 127 64H129Z" fill="black" fill-opacity="0.2" mask="url(#path-3-inside-1_593_372)"/>
<mask id="path-5-inside-2_593_372" fill="white">
<path fill-rule="evenodd" clip-rule="evenodd" d="M160 32H192V64C192 46.3269 177.673 32 160 32Z"/>
</mask>
<path fill-rule="evenodd" clip-rule="evenodd" d="M160 32H192V64C192 46.3269 177.673 32 160 32Z" fill="#D9D9D9"/>
<path d="M192 32V31H193V32H192ZM192 33H160V31H192V33ZM191 64V32H193V64H191ZM191 64C191 46.8792 177.121 33 160 33V31C178.225 31 193 45.7746 193 64H191Z" fill="black" fill-opacity="0.2" mask="url(#path-5-inside-2_593_372)"/>
<mask id="path-7-inside-3_593_372" fill="white">
<path fill-rule="evenodd" clip-rule="evenodd" d="M160 96H128V64C128 81.6731 142.327 96 160 96Z"/>
</mask>
<path fill-rule="evenodd" clip-rule="evenodd" d="M160 96H128V64C128 81.6731 142.327 96 160 96Z" fill="#D9D9D9"/>
<path d="M128 96V97H127V96H128ZM128 95H160V97H128V95ZM129 64V96H127V64H129ZM129 64C129 81.1208 142.879 95 160 95V97C141.775 97 127 82.2254 127 64H129Z" fill="black" fill-opacity="0.2" mask="url(#path-7-inside-3_593_372)"/>
<mask id="path-9-inside-4_593_372" fill="white">
<path fill-rule="evenodd" clip-rule="evenodd" d="M160 96H192V64C192 81.6731 177.673 96 160 96Z"/>
</mask>
<path fill-rule="evenodd" clip-rule="evenodd" d="M160 96H192V64C192 81.6731 177.673 96 160 96Z" fill="#D9D9D9"/>
<path d="M192 96V97H193V96H192ZM192 95H160V97H192V95ZM191 64V96H193V64H191ZM191 64C191 81.1208 177.121 95 160 95V97C178.225 97 193 82.2254 193 64H191Z" fill="black" fill-opacity="0.2" mask="url(#path-9-inside-4_593_372)"/>
<path d="M64 0V32H32L64 0Z" fill="#D9D9D9"/>
<path d="M33.2071 31.5L63.5 1.20711V31.5H33.2071Z" stroke="black" stroke-opacity="0.2"/>
<path d="M128 32V0H96L128 32Z" fill="#D9D9D9"/>
<path d="M97.2071 0.5L127.5 30.7929V0.5H97.2071Z" stroke="black" stroke-opacity="0.2"/>
<path d="M64 0V32H96L64 0Z" fill="#D9D9D9"/>
<path d="M94.7929 31.5L64.5 1.20711V31.5H94.7929Z" stroke="black" stroke-opacity="0.2"/>
<path d="M128 32V0H160L128 32Z" fill="#D9D9D9"/>
<path d="M158.793 0.5L128.5 30.7929V0.5H158.793Z" stroke="black" stroke-opacity="0.2"/>
<path d="M64 128C81.6731 128 96 142.327 96 160H64V128Z" fill="#D9D9D9"/>
<path d="M64.5 128.504C81.5 128.768 95.2316 142.5 95.4961 159.5H64.5V128.504Z" stroke="black" stroke-opacity="0.2"/>
<path d="M32 160C32 142.327 46.3269 128 64 128V160H32Z" fill="#D9D9D9"/>
<path d="M32.5039 159.5C32.7684 142.5 46.5 128.768 63.5 128.504V159.5H32.5039Z" stroke="black" stroke-opacity="0.2"/>
<path d="M64 160H96C96 177.673 81.6731 192 64 192V160Z" fill="#D9D9D9"/>
<path d="M64.5 160.5H95.4961C95.2316 177.5 81.5 191.232 64.5 191.496V160.5Z" stroke="black" stroke-opacity="0.2"/>
<path d="M32 160H64V192C46.3269 192 32 177.673 32 160Z" fill="#D9D9D9"/>
<path d="M63.5 191.496C46.5 191.232 32.7684 177.5 32.5039 160.5H63.5V191.496Z" stroke="black" stroke-opacity="0.2"/>
<mask id="path-27-inside-5_593_372" fill="white">
<path fill-rule="evenodd" clip-rule="evenodd" d="M64 32L96 48V64H64V32Z"/>
</mask>
<path fill-rule="evenodd" clip-rule="evenodd" d="M64 32L96 48V64H64V32Z" fill="#D9D9D9"/>
<path d="M96 48H97V47.382L96.4472 47.1056L96 48ZM64 32L64.4472 31.1056L63 30.382V32H64ZM96 64V65H97V64H96ZM64 64H63V65H64V64ZM96.4472 47.1056L64.4472 31.1056L63.5528 32.8944L95.5528 48.8944L96.4472 47.1056ZM97 64V48H95V64H97ZM64 65H96V63H64V65ZM63 32V64H65V32H63Z" fill="black" fill-opacity="0.2" mask="url(#path-27-inside-5_593_372)"/>
<mask id="path-29-inside-6_593_372" fill="white">
<path fill-rule="evenodd" clip-rule="evenodd" d="M192 160L176 192L160 192L160 160L192 160Z"/>
</mask>
<path fill-rule="evenodd" clip-rule="evenodd" d="M192 160L176 192L160 192L160 160L192 160Z" fill="#D9D9D9"/>
<path d="M176 192L176 193L176.618 193L176.894 192.447L176 192ZM192 160L192.894 160.447L193.618 159L192 159L192 160ZM160 192L159 192L159 193L160 193L160 192ZM160 160L160 159L159 159L159 160L160 160ZM176.894 192.447L192.894 160.447L191.106 159.553L175.106 191.553L176.894 192.447ZM160 193L176 193L176 191L160 191L160 193ZM159 160L159 192L161 192L161 160L159 160ZM192 159L160 159L160 161L192 161L192 159Z" fill="black" fill-opacity="0.2" mask="url(#path-29-inside-6_593_372)"/>
<mask id="path-31-inside-7_593_372" fill="white">
<path fill-rule="evenodd" clip-rule="evenodd" d="M64 96L32 80V64H64V96Z"/>
</mask>
<path fill-rule="evenodd" clip-rule="evenodd" d="M64 96L32 80V64H64V96Z" fill="#D9D9D9"/>
<path d="M32 80H31V80.618L31.5528 80.8944L32 80ZM64 96L63.5528 96.8944L65 97.618V96H64ZM32 64V63H31V64H32ZM64 64H65V63H64V64ZM31.5528 80.8944L63.5528 96.8944L64.4472 95.1056L32.4472 79.1056L31.5528 80.8944ZM31 64V80H33V64H31ZM64 63H32V65H64V63ZM65 96V64H63V96H65Z" fill="black" fill-opacity="0.2" mask="url(#path-31-inside-7_593_372)"/>
<mask id="path-33-inside-8_593_372" fill="white">
<path fill-rule="evenodd" clip-rule="evenodd" d="M128 160L144 128L160 128L160 160L128 160Z"/>
</mask>
<path fill-rule="evenodd" clip-rule="evenodd" d="M128 160L144 128L160 128L160 160L128 160Z" fill="#D9D9D9"/>
<path d="M144 128L144 127L143.382 127L143.106 127.553L144 128ZM128 160L127.106 159.553L126.382 161L128 161L128 160ZM160 128L161 128L161 127L160 127L160 128ZM160 160L160 161L161 161L161 160L160 160ZM143.106 127.553L127.106 159.553L128.894 160.447L144.894 128.447L143.106 127.553ZM160 127L144 127L144 129L160 129L160 127ZM161 160L161 128L159 128L159 160L161 160ZM128 161L160 161L160 159L128 159L128 161Z" fill="black" fill-opacity="0.2" mask="url(#path-33-inside-8_593_372)"/>
<mask id="path-35-inside-9_593_372" fill="white">
<path fill-rule="evenodd" clip-rule="evenodd" d="M64 32L32 48V64H64V32Z"/>
</mask>
<path fill-rule="evenodd" clip-rule="evenodd" d="M64 32L32 48V64H64V32Z" fill="#D9D9D9"/>
<path d="M32 48H31V47.382L31.5528 47.1056L32 48ZM64 32L63.5528 31.1056L65 30.382V32H64ZM32 64V65H31V64H32ZM64 64H65V65H64V64ZM31.5528 47.1056L63.5528 31.1056L64.4472 32.8944L32.4472 48.8944L31.5528 47.1056ZM31 64V48H33V64H31ZM64 65H32V63H64V65ZM65 32V64H63V32H65Z" fill="black" fill-opacity="0.2" mask="url(#path-35-inside-9_593_372)"/>
<mask id="path-37-inside-10_593_372" fill="white">
<path fill-rule="evenodd" clip-rule="evenodd" d="M192 160L176 128L160 128L160 160L192 160Z"/>
</mask>
<path fill-rule="evenodd" clip-rule="evenodd" d="M192 160L176 128L160 128L160 160L192 160Z" fill="#D9D9D9"/>
<path d="M176 128L176 127L176.618 127L176.894 127.553L176 128ZM192 160L192.894 159.553L193.618 161L192 161L192 160ZM160 128L159 128L159 127L160 127L160 128ZM160 160L160 161L159 161L159 160L160 160ZM176.894 127.553L192.894 159.553L191.106 160.447L175.106 128.447L176.894 127.553ZM160 127L176 127L176 129L160 129L160 127ZM159 160L159 128L161 128L161 160L159 160ZM192 161L160 161L160 159L192 159L192 161Z" fill="black" fill-opacity="0.2" mask="url(#path-37-inside-10_593_372)"/>
<mask id="path-39-inside-11_593_372" fill="white">
<path fill-rule="evenodd" clip-rule="evenodd" d="M64 96L96 80V64H64V96Z"/>
</mask>
<path fill-rule="evenodd" clip-rule="evenodd" d="M64 96L96 80V64H64V96Z" fill="#D9D9D9"/>
<path d="M96 80H97V80.618L96.4472 80.8944L96 80ZM64 96L64.4472 96.8944L63 97.618V96H64ZM96 64V63H97V64H96ZM64 64H63V63H64V64ZM96.4472 80.8944L64.4472 96.8944L63.5528 95.1056L95.5528 79.1056L96.4472 80.8944ZM97 64V80H95V64H97ZM64 63H96V65H64V63ZM63 96V64H65V96H63Z" fill="black" fill-opacity="0.2" mask="url(#path-39-inside-11_593_372)"/>
<mask id="path-41-inside-12_593_372" fill="white">
<path fill-rule="evenodd" clip-rule="evenodd" d="M128 160L144 192L160 192L160 160L128 160Z"/>
</mask>
<path fill-rule="evenodd" clip-rule="evenodd" d="M128 160L144 192L160 192L160 160L128 160Z" fill="#D9D9D9"/>
<path d="M144 192L144 193L143.382 193L143.106 192.447L144 192ZM128 160L127.106 160.447L126.382 159L128 159L128 160ZM160 192L161 192L161 193L160 193L160 192ZM160 160L160 159L161 159L161 160L160 160ZM143.106 192.447L127.106 160.447L128.894 159.553L144.894 191.553L143.106 192.447ZM160 193L144 193L144 191L160 191L160 193ZM161 160L161 192L159 192L159 160L161 160ZM128 159L160 159L160 161L128 161L128 159Z" fill="black" fill-opacity="0.2" mask="url(#path-41-inside-12_593_372)"/>
<mask id="path-43-inside-13_593_372" fill="white">
<path fill-rule="evenodd" clip-rule="evenodd" d="M32 48L0 64H32V48Z"/>
</mask>
<path fill-rule="evenodd" clip-rule="evenodd" d="M32 48L0 64H32V48Z" fill="#D9D9D9"/>
<path d="M0 64L-0.447214 63.1056L0 65V64ZM32 48H33V46.382L31.5528 47.1056L32 48ZM32 64V65H33V64H32ZM0.447214 64.8944L32.4472 48.8944L31.5528 47.1056L-0.447214 63.1056L0.447214 64.8944ZM32 63H0V65H32V63ZM33 64V48H31V64H33Z" fill="black" fill-opacity="0.2" mask="url(#path-43-inside-13_593_372)"/>
<mask id="path-45-inside-14_593_372" fill="white">
<path fill-rule="evenodd" clip-rule="evenodd" d="M176 128L160 96L160 128L176 128Z"/>
</mask>
<path fill-rule="evenodd" clip-rule="evenodd" d="M176 128L160 96L160 128L176 128Z" fill="#D9D9D9"/>
<path d="M160 96L160.894 95.5528L159 96L160 96ZM176 128L176 129L177.618 129L176.894 127.553L176 128ZM160 128L159 128L159 129L160 129L160 128ZM159.106 96.4472L175.106 128.447L176.894 127.553L160.894 95.5528L159.106 96.4472ZM161 128L161 96L159 96L159 128L161 128ZM160 129L176 129L176 127L160 127L160 129Z" fill="black" fill-opacity="0.2" mask="url(#path-45-inside-14_593_372)"/>
<mask id="path-47-inside-15_593_372" fill="white">
<path fill-rule="evenodd" clip-rule="evenodd" d="M96 80L128 64H96V80Z"/>
</mask>
<path fill-rule="evenodd" clip-rule="evenodd" d="M96 80L128 64H96V80Z" fill="#D9D9D9"/>
<path d="M128 64L128.447 64.8944L128 63V64ZM96 80H95V81.618L96.4472 80.8944L96 80ZM96 64V63H95V64H96ZM127.553 63.1056L95.5528 79.1056L96.4472 80.8944L128.447 64.8944L127.553 63.1056ZM96 65H128V63H96V65ZM95 64V80H97V64H95Z" fill="black" fill-opacity="0.2" mask="url(#path-47-inside-15_593_372)"/>
<mask id="path-49-inside-16_593_372" fill="white">
<path fill-rule="evenodd" clip-rule="evenodd" d="M144 192L160 224L160 192L144 192Z"/>
</mask>
<path fill-rule="evenodd" clip-rule="evenodd" d="M144 192L160 224L160 192L144 192Z" fill="#D9D9D9"/>
<path d="M160 224L159.106 224.447L161 224L160 224ZM144 192L144 191L142.382 191L143.106 192.447L144 192ZM160 192L161 192L161 191L160 191L160 192ZM160.894 223.553L144.894 191.553L143.106 192.447L159.106 224.447L160.894 223.553ZM159 192L159 224L161 224L161 192L159 192ZM160 191L144 191L144 193L160 193L160 191Z" fill="black" fill-opacity="0.2" mask="url(#path-49-inside-16_593_372)"/>
<mask id="path-51-inside-17_593_372" fill="white">
<path fill-rule="evenodd" clip-rule="evenodd" d="M96 48L128 64H96V48Z"/>
</mask>
<path fill-rule="evenodd" clip-rule="evenodd" d="M96 48L128 64H96V48Z" fill="#D9D9D9"/>
<path d="M128 64L128.447 63.1056L128 65V64ZM96 48H95V46.382L96.4472 47.1056L96 48ZM96 64V65H95V64H96ZM127.553 64.8944L95.5528 48.8944L96.4472 47.1056L128.447 63.1056L127.553 64.8944ZM96 63H128V65H96V63ZM95 64V48H97V64H95Z" fill="black" fill-opacity="0.2" mask="url(#path-51-inside-17_593_372)"/>
<mask id="path-53-inside-18_593_372" fill="white">
<path fill-rule="evenodd" clip-rule="evenodd" d="M176 192L160 224L160 192L176 192Z"/>
</mask>
<path fill-rule="evenodd" clip-rule="evenodd" d="M176 192L160 224L160 192L176 192Z" fill="#D9D9D9"/>
<path d="M160 224L160.894 224.447L159 224L160 224ZM176 192L176 191L177.618 191L176.894 192.447L176 192ZM160 192L159 192L159 191L160 191L160 192ZM159.106 223.553L175.106 191.553L176.894 192.447L160.894 224.447L159.106 223.553ZM161 192L161 224L159 224L159 192L161 192ZM160 191L176 191L176 193L160 193L160 191Z" fill="black" fill-opacity="0.2" mask="url(#path-53-inside-18_593_372)"/>
<mask id="path-55-inside-19_593_372" fill="white">
<path fill-rule="evenodd" clip-rule="evenodd" d="M32 80L0 64H32V80Z"/>
</mask>
<path fill-rule="evenodd" clip-rule="evenodd" d="M32 80L0 64H32V80Z" fill="#D9D9D9"/>
<path d="M0 64L-0.447214 64.8944L0 63V64ZM32 80H33V81.618L31.5528 80.8944L32 80ZM32 64V63H33V64H32ZM0.447214 63.1056L32.4472 79.1056L31.5528 80.8944L-0.447214 64.8944L0.447214 63.1056ZM32 65H0V63H32V65ZM33 64V80H31V64H33Z" fill="black" fill-opacity="0.2" mask="url(#path-55-inside-19_593_372)"/>
<mask id="path-57-inside-20_593_372" fill="white">
<path fill-rule="evenodd" clip-rule="evenodd" d="M144 128L160 96L160 128L144 128Z"/>
</mask>
<path fill-rule="evenodd" clip-rule="evenodd" d="M144 128L160 96L160 128L144 128Z" fill="#D9D9D9"/>
<path d="M160 96L159.106 95.5528L161 96L160 96ZM144 128L144 129L142.382 129L143.106 127.553L144 128ZM160 128L161 128L161 129L160 129L160 128ZM160.894 96.4472L144.894 128.447L143.106 127.553L159.106 95.5528L160.894 96.4472ZM159 128L159 96L161 96L161 128L159 128ZM160 129L144 129L144 127L160 127L160 129Z" fill="black" fill-opacity="0.2" mask="url(#path-57-inside-20_593_372)"/>
<mask id="path-59-inside-21_593_372" fill="white">
<path fill-rule="evenodd" clip-rule="evenodd" d="M96 96H128V128H119.438C113.817 118.284 105.716 110.183 96 104.562V96Z"/>
</mask>
<path fill-rule="evenodd" clip-rule="evenodd" d="M96 96H128V128H119.438C113.817 118.284 105.716 110.183 96 104.562V96Z" fill="#D9D9D9"/>
<path d="M128 96H129V95H128V96ZM96 96V95H95V96H96ZM128 128V129H129V128H128ZM119.438 128L118.572 128.501L118.861 129H119.438V128ZM96 104.562H95V105.139L95.4993 105.428L96 104.562ZM128 95H96V97H128V95ZM129 128V96H127V128H129ZM119.438 129H128V127H119.438V129ZM95.4993 105.428C105.064 110.961 113.039 118.936 118.572 128.501L120.304 127.499C114.595 117.632 106.368 109.405 96.5007 103.696L95.4993 105.428ZM95 96V104.562H97V96H95Z" fill="black" fill-opacity="0.2" mask="url(#path-59-inside-21_593_372)"/>
<mask id="path-61-inside-22_593_372" fill="white">
<path fill-rule="evenodd" clip-rule="evenodd" d="M96 224H128V192H119.438C113.817 201.716 105.716 209.817 96 215.438V224Z"/>
</mask>
<path fill-rule="evenodd" clip-rule="evenodd" d="M96 224H128V192H119.438C113.817 201.716 105.716 209.817 96 215.438V224Z" fill="#D9D9D9"/>
<path d="M128 224H129V225H128V224ZM96 224V225H95V224H96ZM128 192V191H129V192H128ZM119.438 192L118.572 191.499L118.861 191H119.438V192ZM96 215.438H95V214.861L95.4993 214.572L96 215.438ZM128 225H96V223H128V225ZM129 192V224H127V192H129ZM119.438 191H128V193H119.438V191ZM95.4993 214.572C105.064 209.039 113.039 201.064 118.572 191.499L120.304 192.501C114.595 202.368 106.368 210.595 96.5007 216.304L95.4993 214.572ZM95 224V215.438H97V224H95Z" fill="black" fill-opacity="0.2" mask="url(#path-61-inside-22_593_372)"/>
<mask id="path-63-inside-23_593_372" fill="white">
<path fill-rule="evenodd" clip-rule="evenodd" d="M32 96H0V128H8.56206C14.1825 118.284 22.2839 110.183 32 104.562V96Z"/>
</mask>
<path fill-rule="evenodd" clip-rule="evenodd" d="M32 96H0V128H8.56206C14.1825 118.284 22.2839 110.183 32 104.562V96Z" fill="#D9D9D9"/>
<path d="M0 96H-1V95H0V96ZM32 96V95H33V96H32ZM0 128V129H-1V128H0ZM8.56206 128L9.42767 128.501L9.13885 129H8.56206V128ZM32 104.562H33V105.139L32.5007 105.428L32 104.562ZM0 95H32V97H0V95ZM-1 128V96H1V128H-1ZM8.56206 129H0V127H8.56206V129ZM32.5007 105.428C22.9361 110.961 14.9605 118.936 9.42767 128.501L7.69646 127.499C13.4045 117.632 21.6317 109.405 31.4993 103.696L32.5007 105.428ZM33 96V104.562H31V96H33Z" fill="black" fill-opacity="0.2" mask="url(#path-63-inside-23_593_372)"/>
<mask id="path-65-inside-24_593_372" fill="white">
<path fill-rule="evenodd" clip-rule="evenodd" d="M32 224H0V192H8.56206C14.1825 201.716 22.2839 209.817 32 215.438V224Z"/>
</mask>
<path fill-rule="evenodd" clip-rule="evenodd" d="M32 224H0V192H8.56206C14.1825 201.716 22.2839 209.817 32 215.438V224Z" fill="#D9D9D9"/>
<path d="M0 224H-1V225H0V224ZM32 224V225H33V224H32ZM0 192V191H-1V192H0ZM8.56206 192L9.42767 191.499L9.13885 191H8.56206V192ZM32 215.438H33V214.861L32.5007 214.572L32 215.438ZM0 225H32V223H0V225ZM-1 192V224H1V192H-1ZM8.56206 191H0V193H8.56206V191ZM32.5007 214.572C22.9361 209.039 14.9605 201.064 9.42767 191.499L7.69646 192.501C13.4045 202.368 21.6317 210.595 31.4993 216.304L32.5007 214.572ZM33 224V215.438H31V224H33Z" fill="black" fill-opacity="0.2" mask="url(#path-65-inside-24_593_372)"/>
<mask id="path-67-inside-25_593_372" fill="white">
<path fill-rule="evenodd" clip-rule="evenodd" d="M64 96H96V104.562C86.5865 99.1166 75.6572 96 64 96Z"/>
</mask>
<path fill-rule="evenodd" clip-rule="evenodd" d="M64 96H96V104.562C86.5865 99.1166 75.6572 96 64 96Z" fill="#D9D9D9"/>
<path d="M96 96H97V95H96V96ZM96 104.562L95.4993 105.428L97 106.296V104.562H96ZM96 95H64V97H96V95ZM97 104.562V96H95V104.562H97ZM64 97C75.4767 97 86.2338 100.068 95.4993 105.428L96.5007 103.696C86.9391 98.1653 75.8377 95 64 95V97Z" fill="black" fill-opacity="0.2" mask="url(#path-67-inside-25_593_372)"/>
<mask id="path-69-inside-26_593_372" fill="white">
<path fill-rule="evenodd" clip-rule="evenodd" d="M64 224H96V215.438C86.5865 220.883 75.6572 224 64 224Z"/>
</mask>
<path fill-rule="evenodd" clip-rule="evenodd" d="M64 224H96V215.438C86.5865 220.883 75.6572 224 64 224Z" fill="#D9D9D9"/>
<path d="M96 224H97V225H96V224ZM96 215.438L95.4993 214.572L97 213.704V215.438H96ZM96 225H64V223H96V225ZM97 215.438V224H95V215.438H97ZM64 223C75.4767 223 86.2338 219.932 95.4993 214.572L96.5007 216.304C86.9391 221.835 75.8377 225 64 225V223Z" fill="black" fill-opacity="0.2" mask="url(#path-69-inside-26_593_372)"/>
<mask id="path-71-inside-27_593_372" fill="white">
<path fill-rule="evenodd" clip-rule="evenodd" d="M64 96H32V104.562C41.4135 99.1166 52.3428 96 64 96Z"/>
</mask>
<path fill-rule="evenodd" clip-rule="evenodd" d="M64 96H32V104.562C41.4135 99.1166 52.3428 96 64 96Z" fill="#D9D9D9"/>
<path d="M32 96H31V95H32V96ZM32 104.562L32.5007 105.428L31 106.296V104.562H32ZM32 95H64V97H32V95ZM31 104.562V96H33V104.562H31ZM64 97C52.5233 97 41.7662 100.068 32.5007 105.428L31.4993 103.696C41.0609 98.1653 52.1623 95 64 95V97Z" fill="black" fill-opacity="0.2" mask="url(#path-71-inside-27_593_372)"/>
<mask id="path-73-inside-28_593_372" fill="white">
<path fill-rule="evenodd" clip-rule="evenodd" d="M64 224H32V215.438C41.4135 220.883 52.3428 224 64 224Z"/>
</mask>
<path fill-rule="evenodd" clip-rule="evenodd" d="M64 224H32V215.438C41.4135 220.883 52.3428 224 64 224Z" fill="#D9D9D9"/>
<path d="M32 224H31V225H32V224ZM32 215.438L32.5007 214.572L31 213.704V215.438H32ZM32 225H64V223H32V225ZM31 215.438V224H33V215.438H31ZM64 223C52.5233 223 41.7662 219.932 32.5007 214.572L31.4993 216.304C41.0609 221.835 52.1623 225 64 225V223Z" fill="black" fill-opacity="0.2" mask="url(#path-73-inside-28_593_372)"/>
<mask id="path-75-inside-29_593_372" fill="white">
<path fill-rule="evenodd" clip-rule="evenodd" d="M128 160V128H119.438C124.883 137.414 128 148.343 128 160Z"/>
</mask>
<path fill-rule="evenodd" clip-rule="evenodd" d="M128 160V128H119.438C124.883 137.414 128 148.343 128 160Z" fill="#D9D9D9"/>
<path d="M128 128V127H129V128H128ZM119.438 128L118.572 128.501L117.704 127H119.438V128ZM129 128V160H127V128H129ZM119.438 127H128V129H119.438V127ZM127 160C127 148.523 123.932 137.766 118.572 128.501L120.304 127.499C125.835 137.061 129 148.162 129 160H127Z" fill="black" fill-opacity="0.2" mask="url(#path-75-inside-29_593_372)"/>
<mask id="path-77-inside-30_593_372" fill="white">
<path fill-rule="evenodd" clip-rule="evenodd" d="M128 160V192H119.438C124.883 182.586 128 171.657 128 160Z"/>
</mask>
<path fill-rule="evenodd" clip-rule="evenodd" d="M128 160V192H119.438C124.883 182.586 128 171.657 128 160Z" fill="#D9D9D9"/>
<path d="M128 192V193H129V192H128ZM119.438 192L118.572 191.499L117.704 193H119.438V192ZM129 192V160H127V192H129ZM119.438 193H128V191H119.438V193ZM127 160C127 171.477 123.932 182.234 118.572 191.499L120.304 192.501C125.835 182.939 129 171.838 129 160H127Z" fill="black" fill-opacity="0.2" mask="url(#path-77-inside-30_593_372)"/>
<mask id="path-79-inside-31_593_372" fill="white">
<path fill-rule="evenodd" clip-rule="evenodd" d="M-4.95911e-05 160V128H8.56201C3.11657 137.414 -4.95911e-05 148.343 -4.95911e-05 160Z"/>
</mask>
<path fill-rule="evenodd" clip-rule="evenodd" d="M-4.95911e-05 160V128H8.56201C3.11657 137.414 -4.95911e-05 148.343 -4.95911e-05 160Z" fill="#D9D9D9"/>
<path d="M-4.95911e-05 128V127H-1.00005V128H-4.95911e-05ZM8.56201 128L9.42762 128.501L10.2957 127H8.56201V128ZM-1.00005 128V160H0.999951V128H-1.00005ZM8.56201 127H-4.95911e-05V129H8.56201V127ZM0.999951 160C0.999951 148.523 4.06785 137.766 9.42762 128.501L7.69641 127.499C2.16529 137.061 -1.00005 148.162 -1.00005 160H0.999951Z" fill="black" fill-opacity="0.2" mask="url(#path-79-inside-31_593_372)"/>
<mask id="path-81-inside-32_593_372" fill="white">
<path fill-rule="evenodd" clip-rule="evenodd" d="M-4.95911e-05 160V192H8.56201C3.11657 182.586 -4.95911e-05 171.657 -4.95911e-05 160Z"/>
</mask>
<path fill-rule="evenodd" clip-rule="evenodd" d="M-4.95911e-05 160V192H8.56201C3.11657 182.586 -4.95911e-05 171.657 -4.95911e-05 160Z" fill="#D9D9D9"/>
<path d="M-4.95911e-05 192V193H-1.00005V192H-4.95911e-05ZM8.56201 192L9.42762 191.499L10.2957 193H8.56201V192ZM-1.00005 192V160H0.999951V192H-1.00005ZM8.56201 193H-4.95911e-05V191H8.56201V193ZM0.999951 160C0.999951 171.477 4.06785 182.234 9.42762 191.499L7.69641 192.501C2.16529 182.939 -1.00005 171.838 -1.00005 160H0.999951Z" fill="black" fill-opacity="0.2" mask="url(#path-81-inside-32_593_372)"/>
</g>
<defs>
<clipPath id="clip0_593_372">
<rect width="192" height="224" fill="white"/>
</clipPath>
</defs>
</svg>
